# xmcd CD database file
#
# Track frame offsets:
#	150
#	11950
#	23675
#	36300
#	55075
#	71512
#	82850
#	98287
#	112825
#	129517
#	147737
#	163137
#	178800
#	199100
#	215537
#	229262
#	251125
#	273662
#	292975
#	302875
#
# Disc length: 4175 seconds
#
# Revision: 0
# Processed by: cddbd v1.4PL0 Copyright (c) Steve Scherf et al.
# Submitted via: CDex 1.50Beta7
#
DISCID=23104d14
DTITLE=Paul Mauriat - Grand Orchestra Super Best 20
DYEAR=1999
DGENRE=New Age
TTITLE0=El Bimbo
TTITLE1=Love Is Blue
TTITLE2=Toccata
TTITLE3=Penelope
TTITLE4=Nocturne
TTITLE5=Minuetto
TTITLE6=Chariots Of Fire
TTITLE7=I Will Follow Him
TTITLE8=A Whole New World
TTITLE9=Can You Feel The Love Tonight
TTITLE10=Beauty And The Beast
TTITLE11=I Will Alway Love You
TTITLE12=Say Yes
TTITLE13=Unchained Melody
TTITLE14=Quartet For Kobe
TTITLE15=Schindler's List
TTITLE16=Invatationto The Dance
TTITLE17=Andante From Piano Concerto No.21
TTITLE18=Traumerei
TTITLE19=Prelude Form "La Traviata"
EXTD=YEAR: 1999
EXTT0=
EXTT1=
EXTT2=
EXTT3=
EXTT4=
EXTT5=
EXTT6=
EXTT7=
EXTT8=
EXTT9=
EXTT10=
EXTT11=
EXTT12=
EXTT13=
EXTT14=
EXTT15=
EXTT16=
EXTT17=
EXTT18=
EXTT19=
PLAYORDER=
